<?xml version="1.0" encoding="UTF-8" standalone="no"?>
<svg
   xmlns:dc="http://purl.org/dc/elements/1.1/"
   xmlns:cc="http://creativecommons.org/ns#"
   xmlns:rdf="http://www.w3.org/1999/02/22-rdf-syntax-ns#"
   xmlns:svg="http://www.w3.org/2000/svg"
   xmlns="http://www.w3.org/2000/svg"
   xmlns:sodipodi="http://sodipodi.sourceforge.net/DTD/sodipodi-0.dtd"
   xmlns:inkscape="http://www.inkscape.org/namespaces/inkscape"
   version="1.0"
   width="850.000000pt"
   height="953.000000pt"
   viewBox="0 0 850.000000 953.000000"
   preserveAspectRatio="xMidYMid meet"
   id="svg996"
   sodipodi:docname="logo.svg"
   inkscape:version="0.92.4 (unknown)">
  <defs
     id="defs1000" />
  <sodipodi:namedview
     pagecolor="#ffffff"
     bordercolor="#666666"
     borderopacity="1"
     objecttolerance="10"
     gridtolerance="10"
     guidetolerance="10"
     inkscape:pageopacity="0"
     inkscape:pageshadow="2"
     inkscape:window-width="1920"
     inkscape:window-height="1015"
     id="namedview998"
     showgrid="false"
     inkscape:zoom="0.18572928"
     inkscape:cx="625.89266"
     inkscape:cy="635.33333"
     inkscape:window-x="0"
     inkscape:window-y="0"
     inkscape:window-maximized="1"
     inkscape:current-layer="g994" />
  <metadata
     id="metadata980">
Created by potrace 1.15, written by Peter Selinger 2001-2017
<rdf:RDF>
  <cc:Work
     rdf:about="">
    <dc:format>image/svg+xml</dc:format>
    <dc:type
       rdf:resource="http://purl.org/dc/dcmitype/StillImage" />
  </cc:Work>
</rdf:RDF>
</metadata>
  <g
     transform="translate(0.000000,953.000000) scale(0.100000,-0.100000)"
     fill="#000000"
     stroke="none"
     id="g994">
    <path
       d="M3545 9512 c-183 -55 -335 -194 -415 -382 -12 -30 -31 -100 -40 -155 l-17 -100 -1324 -802 c-728 -442 -1357 -824 -1398 -850 -155 -98 -254 -228 -324 -428 l-22 -60 -3 -1885 c-2 -1338 0 -1904 8 -1949 15 -88 61 -202 112 -281 99 -152 37 -111 1739 -1141 860 -521 1580 -955 1599 -965 52 -27 172 -26 226 3 63 34 97 66 129 125 30 52 30 55 30 203 -1 133 -3 156 -24 205 -37 90 -94 156 -184 214 -45 29 -694 423 -1442 876 -748 452 -1375 837 -1393 854 -19 17 -46 51 -60 76 l-27 45 -3 1675 c-3 1875 -8 1729 71 1815 32 34 351 232 1366 846 l1324 801 86 -21 c108 -26 205 -27 305 -1 113 29 189 73 282 165 132 130 194 281 195 470 1 177 -48 318 -154 446 -65 78 -176 156 -268 189 -89 31 -287 38 -374 12z m310 -251 c117 -52 199 -141 235 -258 52 -169 5 -335 -130 -456 -187 -168 -485 -100 -599 136 -138 284 65 617 369 604 50 -2 92 -11 125 -26z"
       id="path982"
       style="fill:#ff321e;fill-opacity:1" />
    <path
       d="M4873 8920 c-88 -18 -159 -78 -200 -167 -23 -50 -24 -61 -21 -206 3 -149 4 -154 36 -220 20 -40 50 -81 75 -103 23 -20 287 -184 587 -366 1976 -1195 2334 -1414 2362 -1441 17 -18 42 -54 54 -82 l24 -50 0 -1666 c0 -1880 7 -1724 -79 -1808 -60 -58 -2609 -1564 -2631 -1555 -123 53 -145 58 -265 58 -147 1 -231 -23 -341 -96 -124 -83 -210 -195 -261 -340 -35 -98 -43 -262 -18 -372 41 -189 170 -357 338 -443 87 -45 166 -63 275 -63 179 0 307 54 438 185 90 89 142 180 173 300 l17 69 1375 831 c1372 831 1374 832 1464 921 102 101 143 165 189 291 l31 88 3 1900 c2 1872 2 1901 -18 1980 -39 157 -135 312 -250 403 -61 49 -3095 1890 -3175 1927 -60 28 -124 37 -182 25z m67 -7869 c140 -53 236 -176 262 -335 29 -174 -68 -359 -231 -439 -60 -29 -74 -32 -161 -32 -102 0 -150 15 -234 73 -59 40 -123 133 -147 214 -99 324 208 634 511 519z"
       id="path984"
       style="fill:#ff321e;fill-opacity:1" />
    <path
       d="M4005 6558 c-1592 -443 -1508 -416 -1566 -504 -41 -62 -66 -137 -104 -307 -32 -141 -35 -164 -25 -214 12 -69 45 -140 71 -153 14 -8 153 27 591 149 315 88 980 273 1478 411 498 138 920 259 939 267 76 36 127 149 181 402 34 156 33 200 -1 281 -25 57 -47 80 -73 79 -12 -1 -682 -185 -1491 -411z"
       id="path986"
       style="fill:#ff321e;fill-opacity:1" />
    <path
       d="M7220 6410 c-14 -4 -1080 -301 -2370 -660 -1647 -458 -2361 -661 -2400 -681 -133 -71 -205 -162 -321 -406 -68 -144 -79 -175 -79 -221 0 -95 50 -172 111 -172 18 0 688 182 1488 405 801 222 1875 521 2387 663 512 143 953 270 980 283 82 40 172 139 231 254 94 184 153 329 153 374 0 51 -22 107 -57 144 -28 28 -69 34 -123 17z"
       id="path988"
       style="fill:#ff321e;fill-opacity:1" />
    <path
       d="M4032 4415 c-1531 -426 -2404 -674 -2439 -692 -69 -34 -168 -129 -218 -207 -58 -91 -185 -376 -185 -415 0 -82 60 -181 110 -181 13 0 426 112 919 249 493 137 1571 437 2396 666 825 230 1520 428 1545 440 117 60 189 155 300 396 70 154 80 181 80 232 0 38 -7 71 -20 96 -22 43 -64 81 -89 80 -9 0 -1089 -299 -2399 -664z"
       id="path990"
       style="fill:#ff321e;fill-opacity:1" />
    <path
       d="M4810 3425 c-778 -216 -1439 -401 -1469 -410 -71 -22 -133 -81 -171 -161 -37 -76 -102 -348 -102 -421 1 -95 50 -203 92 -203 17 0 410 108 2432 671 295 82 539 149 542 149 3 0 24 17 47 37 68 62 96 132 150 373 29 131 31 151 21 208 -5 34 -22 82 -37 107 -22 39 -30 45 -58 44 -18 0 -669 -178 -1447 -394z"
       id="path992"
       style="fill:#ff321e;fill-opacity:1" />
  </g>
</svg>
